<svg id="Ebene_1" data-name="Ebene 1" xmlns="http://www.w3.org/2000/svg" xmlns:xlink="http://www.w3.org/1999/xlink" viewBox="0 0 243.76 40.28"><defs><style>.cls-1{fill:#1a171b;}.cls-2{fill:#bd1f1e;}.cls-3{fill:url(#linear-gradient);}.cls-4{fill:url(#linear-gradient-2);}.cls-5{fill:url(#linear-gradient-3);}</style><linearGradient id="linear-gradient" x1="-5.84" y1="80.45" x2="27.89" y2="80.45" gradientTransform="matrix(0.15, 1.19, -0.89, 0, 216.99, 6.99)" gradientUnits="userSpaceOnUse"><stop offset="0" stop-color="#da0024"/><stop offset="0.34" stop-color="#d20025"/><stop offset="0.9" stop-color="#bb0c26"/><stop offset="1" stop-color="#b50f25"/></linearGradient><linearGradient id="linear-gradient-2" x1="-5.12" y1="74.47" x2="21.16" y2="74.47" gradientTransform="matrix(0.15, 1.19, -0.89, 0, 216.99, 6.99)" gradientUnits="userSpaceOnUse"><stop offset="0" stop-color="#871423"/><stop offset="0.17" stop-color="#801422"/><stop offset="0.7" stop-color="#691b21"/><stop offset="1" stop-color="#5f1c20"/></linearGradient><linearGradient id="linear-gradient-3" x1="3.49" y1="69.29" x2="23.96" y2="69.29" xlink:href="#linear-gradient"/></defs><title>logo_scipio_ERP_160603</title><path class="cls-1" d="M0.32,28.53A0.83,0.83,0,0,1,0,27.89a0.85,0.85,0,0,1,.83-0.83,0.92,0.92,0,0,1,.54.19,10.42,10.42,0,0,0,7.55,2.91c3.36,0,5.66-1.89,5.66-4.45V25.65c0-2.37-1.25-3.74-6.34-4.77C2.88,19.79.7,18,.7,14.57V14.51c0-3.33,3-5.89,7.2-5.89A11,11,0,0,1,15,10.93a0.87,0.87,0,0,1,.35.67,0.85,0.85,0,0,1-.83.83A0.87,0.87,0,0,1,14,12.24a9.58,9.58,0,0,0-6.18-2.11c-3.3,0-5.47,1.89-5.47,4.22v0.06c0,2.37,1.22,3.81,6.53,4.9s7.36,2.91,7.36,6.18v0.06c0,3.62-3.1,6.11-7.42,6.11A12.67,12.67,0,0,1,.32,28.53Z" transform="translate(0 0)"/><path class="cls-1" d="M23.3,20.21V20.14A11.26,11.26,0,0,1,34.5,8.56a11.7,11.7,0,0,1,8.22,3.14,1,1,0,0,1,.32.67,0.88,0.88,0,0,1-.86.83A0.85,0.85,0,0,1,41.6,13a10,10,0,0,0-7.14-2.91c-5.38,0-9.44,4.38-9.44,10v0.06c0,5.66,4.13,10.08,9.47,10.08a9.86,9.86,0,0,0,7.29-3.1,0.81,0.81,0,0,1,.58-0.26,0.84,0.84,0,0,1,.8.8,0.81,0.81,0,0,1-.26.58,11.6,11.6,0,0,1-8.48,3.49C28,31.73,23.3,26.64,23.3,20.21Z" transform="translate(0 0)"/><path class="cls-1" d="M50.69,9.65a0.83,0.83,0,0,1,1.66,0v21a0.83,0.83,0,1,1-1.66,0v-21Z" transform="translate(0 0)"/><path class="cls-1" d="M61.79,9.77a0.85,0.85,0,0,1,.83-0.83h7.29c4.93,0,8.32,2.53,8.32,6.85v0.06c0,4.7-4.06,7.14-8.74,7.14h-6v7.65a0.83,0.83,0,1,1-1.66,0V9.77ZM69.6,21.45c4.16,0,7-2.18,7-5.5V15.89c0-3.55-2.75-5.41-6.78-5.41H63.45v11H69.6Z" transform="translate(0 0)"/><path class="cls-1" d="M86,9.65a0.83,0.83,0,0,1,1.66,0v21a0.83,0.83,0,1,1-1.66,0v-21Z" transform="translate(0 0)"/><path class="cls-1" d="M96.06,20.21V20.14A11.27,11.27,0,0,1,107.36,8.56c6.78,0,11.23,5.41,11.23,11.52v0.06a11.27,11.27,0,0,1-11.29,11.58C100.51,31.73,96.06,26.32,96.06,20.21Zm20.8,0V20.14c0-5.54-4-10.08-9.57-10.08s-9.5,4.48-9.5,10v0.06c0,5.54,4,10.08,9.57,10.08S116.86,25.74,116.86,20.21Z" transform="translate(0 0)"/><path class="cls-2" d="M180.82,31.34V8.69H196v4.61h-10v4.29h9.41V22H186.1v4.7h10.53v4.67H180.82Z" transform="translate(0 0)"/><path class="cls-2" d="M214.93,31.34l-4.92-9h-1.87v9H202.8V8.69h8.64a15,15,0,0,1,3.18.34,8.28,8.28,0,0,1,2.78,1.14,6,6,0,0,1,2,2.11,6.6,6.6,0,0,1,.74,3.26,6,6,0,0,1-1.25,3.87,6.81,6.81,0,0,1-3.46,2.24l5.92,9.7h-6.4Zm-0.22-15.71a2.27,2.27,0,0,0-.34-1.3,2.31,2.31,0,0,0-.87-0.77,3.8,3.8,0,0,0-1.19-.37,8.83,8.83,0,0,0-1.27-.1h-2.93v5.28h2.6a8.85,8.85,0,0,0,1.38-.11,4.41,4.41,0,0,0,1.29-.4A2.32,2.32,0,0,0,214.71,15.63Z" transform="translate(0 0)"/><path class="cls-2" d="M243.76,15.66A7,7,0,0,1,243,19a6.05,6.05,0,0,1-2,2.19,8.74,8.74,0,0,1-2.88,1.22,14.74,14.74,0,0,1-3.39.38H232v8.54h-5.47V8.69h8.32a15.63,15.63,0,0,1,3.47.37,8.19,8.19,0,0,1,2.82,1.18,5.73,5.73,0,0,1,1.89,2.14A7.08,7.08,0,0,1,243.76,15.66Zm-5.47,0a2.44,2.44,0,0,0-.32-1.31,2.23,2.23,0,0,0-.86-0.8,3.7,3.7,0,0,0-1.23-.38,10.31,10.31,0,0,0-1.42-.1H232v5.34h2.3a8.21,8.21,0,0,0,1.47-.13,3.93,3.93,0,0,0,1.26-.45A2.39,2.39,0,0,0,238,17,2.53,2.53,0,0,0,238.29,15.69Z" transform="translate(0 0)"/><path class="cls-3" d="M141.23,21.44c1.94,4.91,6.73,8.05,11,10.79,2.67,1.65,5.41,3.62,7.2,4.86,3.73,2.59,3.17,3.67.82,3a23.65,23.65,0,0,1-2.53-.84l-1.55-.56-1.69-.63-0.89-.34-1.15-.44c-5.81-2.33-13.42-4.88-17.36-8.94-0.2-.21-0.39-0.43-0.57-0.65l-0.05-.07a8,8,0,0,1-1.69-3.6,8.2,8.2,0,0,1-.13-1.62,9.73,9.73,0,0,1,.11-1.27,13.26,13.26,0,0,1,.71-2.67,20.56,20.56,0,0,1,1.32-2.81,30,30,0,0,1,1.85-2.89q0.52-.72,1.09-1.44c0.76-1,1.59-1.9,2.46-2.82,0.58-.61,1.19-1.21,1.81-1.78a32.75,32.75,0,0,1,6.87-5q0.48-.25,1-0.47l0.32-.14,0.61-.26,0.37-.14,0.52-.18L152,0.4l0.48-.13,0.4-.09,0.44-.08,0.4-.05,0.41,0,0.39,0h0.38l0.39,0,0.34,0L156,0.12l0.31,0.07,0.38,0.1L157,0.39l0.37,0.15,0.24,0.12L158,0.86,158.17,1l0.39,0.26,0.09,0.07a7.81,7.81,0,0,1,1.41,1.42h0c-2.31-3.29-7.39-2.06-12.26,2C143.11,8.65,138.62,15.38,141.23,21.44Z" transform="translate(0 0)"/><path class="cls-4" d="M164.08,23.16c-0.22,2.67-1.29,1.9-3.94-2.8,0.46-.1.84-0.66,0.77-2.42,0.06-5-5.13-11.41-11.45-6.32a11.39,11.39,0,0,0-1,.88c-2.76,2.76-4.66,6.38-4.15,9.69s3.24,6.47,7.9,10c-4.25-2.74-9-5.88-11-10.79-2.61-6.06,1.88-12.79,6.58-16.74,4.86-4,9.94-5.26,12.26-2l0,0.05h0c0.18,0.23.34,0.48,0.51,0.74l0.14,0.23L161,4.21l0.08,0.15,0.14,0.27c0.11,0.21.21,0.43,0.31,0.65l0.11,0.25q0.16,0.38.31,0.77L162,6.49a30.62,30.62,0,0,1,1.23,4.65h0A63.14,63.14,0,0,1,164.08,23.16Z" transform="translate(0 0)"/><path class="cls-5" d="M166.43,30.9c-0.07,3.81-1.76,5-3.75,4.63-4.13-.83-13.46-7.87-13.48-13.4a7.51,7.51,0,0,1,.31-2.56c1.86-5.35,7.86-5.22,10.31.19l0.33,0.6c2.64,4.7,3.72,5.47,3.94,2.8a63.11,63.11,0,0,0-.82-12C163.4,11.85,166.55,23.74,166.43,30.9Z" transform="translate(0 0)"/></svg>