<?xml version="1.0"?>
<svg xmlns="http://www.w3.org/2000/svg" xmlns:xlink="http://www.w3.org/1999/xlink" id="Ebene_1" viewBox="0 0 216.28 37.48">
  <defs>
    <style>.cls-1{fill:#1d1d1b;}.cls-2{fill:#bd2118;}.cls-3{fill:url(#linear-gradient);}.cls-4{fill:url(#linear-gradient-2);}.cls-5{fill:url(#linear-gradient-3);}</style>
    <linearGradient id="linear-gradient" x1="340.37" y1="-83.86" x2="371" y2="-83.86" gradientTransform="translate(217.59 371.56) rotate(-90)" gradientUnits="userSpaceOnUse">
      <stop offset="0" stop-color="#88181e"/>
      <stop offset="0.17" stop-color="#80171d"/>
      <stop offset="0.7" stop-color="#6a1c1c"/>
      <stop offset="1" stop-color="#601d1d"/>
    </linearGradient>
    <linearGradient id="linear-gradient-2" x1="338.85" y1="-79.75" x2="362.2" y2="-79.75" gradientTransform="translate(217.59 371.56) rotate(-90)" gradientUnits="userSpaceOnUse">
      <stop offset="0" stop-color="#dc0c20"/>
      <stop offset="0.34" stop-color="#d31120"/>
      <stop offset="0.9" stop-color="#bc1822"/>
      <stop offset="1" stop-color="#b51820"/>
    </linearGradient>
    <linearGradient id="linear-gradient-3" x1="334.09" y1="-87.15" x2="371.56" y2="-87.15" xlink:href="#linear-gradient-2"/>
  </defs>
  <title>scipio_logo</title>
  <path class="cls-1" d="M0.32,26.82A0.83,0.83,0,0,1,0,26.18a0.85,0.85,0,0,1,.83-0.83,0.92,0.92,0,0,1,.54.19,10.42,10.42,0,0,0,7.55,2.91c3.36,0,5.66-1.89,5.66-4.45V23.94c0-2.37-1.25-3.74-6.34-4.77C2.88,18.09.7,16.26,0.7,12.87V12.81c0-3.33,3-5.89,7.2-5.89A11,11,0,0,1,15,9.22a0.87,0.87,0,0,1,.35.67,0.85,0.85,0,0,1-.83.83A0.87,0.87,0,0,1,14,10.54,9.58,9.58,0,0,0,7.84,8.42c-3.3,0-5.47,1.89-5.47,4.22v0.06c0,2.37,1.22,3.81,6.53,4.9s7.36,2.91,7.36,6.18v0.06c0,3.62-3.1,6.11-7.42,6.11A12.67,12.67,0,0,1,.32,26.82Z" transform="translate(0 0)"/>
  <path class="cls-1" d="M20.74,18.5V18.44A11.26,11.26,0,0,1,31.93,6.86,11.7,11.7,0,0,1,40.16,10a1,1,0,0,1,.32.67,0.88,0.88,0,0,1-.86.83A0.85,0.85,0,0,1,39,11.27,10,10,0,0,0,31.9,8.36c-5.38,0-9.44,4.38-9.44,10v0.06c0,5.66,4.13,10.08,9.47,10.08a9.86,9.86,0,0,0,7.29-3.1,0.82,0.82,0,0,1,.58-0.26,0.84,0.84,0,0,1,.8.8,0.81,0.81,0,0,1-.26.58A11.6,11.6,0,0,1,31.87,30C25.47,30,20.74,24.93,20.74,18.5Z" transform="translate(0 0)"/>
  <path class="cls-1" d="M45.57,7.94a0.83,0.83,0,1,1,1.66,0v21a0.83,0.83,0,0,1-1.66,0v-21Z" transform="translate(0 0)"/>
  <path class="cls-1" d="M54.11,8.07a0.85,0.85,0,0,1,.83-0.83h7.29c4.93,0,8.32,2.53,8.32,6.85v0.06c0,4.7-4.06,7.14-8.74,7.14h-6v7.65a0.83,0.83,0,1,1-1.66,0V8.07Zm7.81,11.68c4.16,0,7-2.18,7-5.5V14.18c0-3.55-2.75-5.41-6.78-5.41H55.77v11h6.14Z" transform="translate(0 0)"/>
  <path class="cls-1" d="M75.71,7.94a0.83,0.83,0,0,1,1.66,0v21a0.83,0.83,0,0,1-1.66,0v-21Z" transform="translate(0 0)"/>
  <path class="cls-1" d="M83.26,18.5V18.44A11.27,11.27,0,0,1,94.56,6.86c6.78,0,11.23,5.41,11.23,11.52v0.06A11.27,11.27,0,0,1,94.49,30C87.71,30,83.26,24.62,83.26,18.5Zm20.8,0V18.44c0-5.54-4-10.08-9.57-10.08s-9.5,4.48-9.5,10v0.06c0,5.54,4,10.08,9.57,10.08S104.06,24,104.06,18.5Z" transform="translate(0 0)"/>
  <path class="cls-2" d="M158.46,29.64V7h15.23v4.61h-10v4.29h9.41v4.38h-9.41V25h10.53v4.67H158.46Z" transform="translate(0 0)"/>
  <path class="cls-2" d="M190,29.64l-4.92-9h-1.87v9h-5.34V7h8.64a15,15,0,0,1,3.18.34,8.3,8.3,0,0,1,2.78,1.14,6,6,0,0,1,2,2.11,6.6,6.6,0,0,1,.74,3.26,6,6,0,0,1-1.25,3.87,6.81,6.81,0,0,1-3.46,2.24l5.92,9.7H190Zm-0.22-15.71a2.27,2.27,0,0,0-.34-1.3,2.31,2.31,0,0,0-.87-0.77,3.8,3.8,0,0,0-1.19-.37,8.82,8.82,0,0,0-1.27-.1H183.2v5.28h2.6a8.85,8.85,0,0,0,1.38-.11,4.42,4.42,0,0,0,1.29-.4A2.32,2.32,0,0,0,189.79,13.93Z" transform="translate(0 0)"/>
  <path class="cls-2" d="M216.28,14a7,7,0,0,1-.74,3.34,6.05,6.05,0,0,1-2,2.19,8.76,8.76,0,0,1-2.88,1.22,14.72,14.72,0,0,1-3.39.38h-2.72v8.54H199.1V7h8.32a15.63,15.63,0,0,1,3.47.37,8.2,8.2,0,0,1,2.82,1.18,5.74,5.74,0,0,1,1.89,2.14A7.08,7.08,0,0,1,216.28,14Zm-5.47,0a2.43,2.43,0,0,0-.32-1.31,2.23,2.23,0,0,0-.86-0.8,3.7,3.7,0,0,0-1.23-.38,10.32,10.32,0,0,0-1.42-.1h-2.4v5.34h2.3a8.21,8.21,0,0,0,1.47-.13,3.93,3.93,0,0,0,1.26-.45,2.39,2.39,0,0,0,.88-0.85A2.52,2.52,0,0,0,210.81,14Z" transform="translate(0 0)"/>
  <path class="cls-3" d="M142.78,4.26L142.68,4c-0.09-.2-0.17-0.39-0.26-0.57l-0.12-.23-0.07-.13C142.16,3,142.09,2.84,142,2.71l-0.12-.19a7.2,7.2,0,0,0-.44-0.62h0l0,0c-2-2.78-6.74-.81-11.34,3.77-4.45,4.5-8.79,11.61-6.58,17,1.63,4.38,5.94,6.64,9.77,8.59-4.18-2.69-6.68-5.19-7-8.36s1.5-6.82,4.12-9.89c0.31-.36.63-0.69,0.95-1,6-5.84,10.56-.54,10.35,4.25,0,1.67-.36,2.25-0.79,2.42,2.29,4.07,3.25,4.64,3.54,2.07a60.7,60.7,0,0,0-.38-11.33h0a26,26,0,0,0-1-4.25L143,4.95c-0.07-.2-0.14-0.39-0.22-0.58l0-.11" transform="translate(0 0)"/>
  <path class="cls-4" d="M144.47,20.7c-0.28,2.58-1.25,2-3.54-2.07l-0.29-.52c-2.08-4.78-7.61-4-9.48,1.42a7.94,7.94,0,0,0-.37,2.49c-0.15,5.27,8.22,10.54,12,10.69,1.82,0,1.85-2.06,2-5.37,0-.75,0-1.55.05-2.37,0-2.1,0-4.33,0-6.17,0-.27,0-0.54,0-0.81h0c0-.38,0-0.77,0-1.15,0-.19,0-0.39,0-0.58s0-.38,0-0.56,0-.52,0-0.78l0-.33c0-.31,0-0.61-0.07-0.9,0-.06,0-0.13,0-0.19,0-.33-0.05-0.66-0.08-1,0,0,0-.06,0-0.08,0-.35-0.07-0.69-0.11-1v0q-0.12-1-.27-2a60.62,60.62,0,0,1,.38,11.33" transform="translate(0 0)"/>
  <path class="cls-5" d="M137.43,0l-0.31,0-0.36,0-0.35.06L136,0.19l-0.38.1-0.37.11-0.41.15-0.37.14-0.44.19-0.36.17-0.49.25-0.35.19-0.57.34L132,2l-0.9.6a33.22,33.22,0,0,0-3,2.4c-7.59,6.94-10.64,14.74-8.87,19.36,1.63,4.28,12.54,12.5,21.95,13.1,1.39-.17,1.31-1.55-1.27-3l-6.66-3.21c-3.83-2-8.14-4.21-9.77-8.59-2.21-5.37,2.13-12.49,6.58-17,4.23-4.22,8.55-6.22,10.8-4.36a5.09,5.09,0,0,0-.71-0.55l-0.08-.06-0.35-.19-0.17-.09-0.34-.13L139,0.19l-0.34-.08-0.26,0-0.35,0-0.29,0h-0.35Z" transform="translate(0 0)"/>
</svg>
