<svg width="500" height="244" xmlns="http://www.w3.org/2000/svg">
 <defs>
  <linearGradient y2="0.499998" x2="0.999992" y1="0.499998" x1="-0.000016" id="SVGID_1_">
   <stop stop-color="#84151C" offset="0"/>
   <stop stop-color="#83151C" offset="0.0189"/>
   <stop stop-color="#661518" offset="0.6432"/>
   <stop stop-color="#5B1517" offset="1"/>
  </linearGradient>
  <linearGradient y2="-0.000003" x2="0.500003" y1="1" x1="0.500003" id="SVGID_2_">
   <stop stop-color="#E40428" offset="0"/>
   <stop stop-color="#DB0727" offset="0.2993"/>
   <stop stop-color="#C31026" offset="0.7859"/>
   <stop stop-color="#B61525" offset="1"/>
  </linearGradient>
 </defs>
 <g>
  <title>background</title>
  <rect fill="none" id="canvas_background" height="246" width="502" y="-1" x="-1"/>
 </g>
 <g>
  <title>Layer 1</title>
  <g id="svg_1">
   <path id="svg_2" d="m49.965,206.185c-0.726,-5.147 -5.655,-9.062 -11.311,-9.062c-10.222,0 -14.065,8.7 -14.065,17.763c0,8.627 3.843,17.327 14.065,17.327c6.96,0 10.875,-4.785 11.745,-11.6l11.02,0c-1.159,12.905 -10.077,21.17 -22.765,21.17c-16.022,0 -25.447,-11.963 -25.447,-26.897c0,-15.37 9.425,-27.332 25.447,-27.332c11.383,0 20.953,6.67 22.33,18.631l-11.019,0z" fill="#B61525"/>
   <path id="svg_3" d="m98.176,187.554c16.021,0 25.447,11.962 25.447,27.332c0,14.935 -9.425,26.897 -25.447,26.897c-16.022,0 -25.448,-11.963 -25.448,-26.897c0,-15.37 9.425,-27.332 25.448,-27.332zm0,44.659c10.222,0 14.064,-8.7 14.064,-17.327c0,-9.062 -3.843,-17.763 -14.064,-17.763c-10.223,0 -14.065,8.7 -14.065,17.763c0,8.627 3.842,17.327 14.065,17.327z" fill="#B61525"/>
   <path id="svg_4" d="m137.179,188.786l16.022,0l12.107,35.598l0.146,0l11.455,-35.598l16.022,0l0,51.765l-10.657,0l0,-36.685l-0.145,0l-12.688,36.685l-8.772,0l-12.688,-36.322l-0.145,0l0,36.322l-10.657,0l0,-51.765z" fill="#B61525"/>
   <path id="svg_5" d="m208.734,188.786l16.021,0l12.108,35.598l0.145,0l11.455,-35.598l16.022,0l0,51.765l-10.657,0l0,-36.685l-0.145,0l-12.688,36.685l-8.772,0l-12.688,-36.322l-0.145,0l0,36.322l-10.657,0l0,-51.765l0.001,0z" fill="#B61525"/>
   <path id="svg_6" d="m280.289,188.786l38.714,0l0,9.57l-27.331,0l0,11.092l25.085,0l0,8.845l-25.085,0l0,12.688l27.912,0l0,9.57l-39.295,0l0,-51.765z" fill="#B61525"/>
   <path id="svg_7" d="m333.067,188.786l27.912,0c9.279,0 15.152,6.453 15.152,14.283c0,6.089 -2.465,10.657 -8.192,12.978l0,0.145c5.582,1.45 7.177,6.888 7.54,12.107c0.218,3.262 0.145,9.353 2.175,12.252l-11.384,0c-1.375,-3.262 -1.23,-8.265 -1.812,-12.397c-0.797,-5.438 -2.9,-7.83 -8.627,-7.83l-11.383,0l0,20.227l-11.382,0l0,-51.765l0.001,0zm11.382,23.417l12.47,0c5.075,0 7.83,-2.175 7.83,-7.395c0,-5.002 -2.755,-7.178 -7.83,-7.178l-12.47,0l0,14.573z" fill="#B61525"/>
   <path id="svg_8" d="m425.719,206.185c-0.726,-5.147 -5.655,-9.062 -11.311,-9.062c-10.223,0 -14.065,8.7 -14.065,17.763c0,8.627 3.843,17.327 14.065,17.327c6.96,0 10.875,-4.785 11.745,-11.6l11.021,0c-1.161,12.905 -10.078,21.17 -22.766,21.17c-16.022,0 -25.447,-11.963 -25.447,-26.897c0,-15.37 9.425,-27.332 25.447,-27.332c11.382,0 20.952,6.67 22.329,18.631l-11.018,0z" fill="#B61525"/>
   <path id="svg_9" d="m450.73,188.786l38.713,0l0,9.57l-27.332,0l0,11.092l25.085,0l0,8.845l-25.085,0l0,12.688l27.911,0l0,9.57l-39.292,0l0,-51.765z" fill="#B61525"/>
  </g>
  <path id="svg_10" d="m105.089,138.239c-7.571,5.729 -20.668,8.595 -39.699,8.595c-15.757,0 -28.444,-3.07 -38.062,-9.004c-9.413,-5.935 -14.12,-13.507 -14.12,-22.306l0,-79.604c0,-8.799 4.707,-16.371 14.12,-22.305c9.618,-5.935 22.306,-9.004 38.062,-9.004c18.622,0 31.923,2.864 39.699,8.595l0,23.737c-7.367,-5.116 -16.78,-7.98 -28.035,-8.595c-17.394,-1.023 -25.988,3.274 -25.988,13.302l0,68.144c0,10.026 8.595,14.324 25.988,13.301c11.664,-0.613 21.077,-3.479 28.035,-8.595l0,23.739z" fill="#B61525"/>
  <path id="svg_11" d="m361.965,28.35l-28.445,0l0,115.619l-37.857,0l0,-115.619l-28.445,0l0,-20.873l94.748,0l0,20.873l-0.001,0z" fill="#B61525"/>
  <path id="svg_12" d="m490.067,115.524c0,8.595 -5.115,15.962 -15.551,22.101c-10.438,6.139 -22.92,9.209 -37.654,9.209c-14.529,0 -27.012,-3.07 -37.447,-9.209c-10.438,-6.139 -15.553,-13.506 -15.553,-22.101l0,-79.604c0,-8.595 5.115,-15.961 15.553,-22.101c10.436,-6.139 22.918,-9.208 37.447,-9.208c14.734,0 27.217,3.069 37.654,9.208c10.436,6.14 15.551,13.506 15.551,22.101l0,79.604zm-68.348,-5.729c0,7.366 6.754,13.301 15.143,13.301c8.391,0 15.145,-5.935 15.145,-13.301l0,-68.144c0,-7.367 -6.754,-13.302 -15.145,-13.302c-8.389,0 -15.143,5.935 -15.143,13.302l0,68.144z" fill="#B61525"/>
  <g id="svg_13">
   <path id="svg_14" d="m180.413,14.88l40.937,122.234c0.738,2.196 1.105,4.602 1.105,7.012l48.643,0c0,-2.41 -0.368,-4.815 -1.104,-7.012l-40.94,-122.234c-1.66,-4.982 -4.966,-8.109 -8.57,-8.109l-48.643,0c3.596,0 6.9,3.126 8.572,8.109z" fill="url(#SVGID_1_)"/>
   <path id="svg_15" d="m164.255,14.88l-40.935,122.234c-0.738,2.196 -1.109,4.602 -1.109,7.012l48.646,0c0,-2.41 0.365,-4.815 1.104,-7.012l40.94,-122.234c1.668,-4.982 4.968,-8.109 8.572,-8.109l-48.648,0c-3.599,0 -6.906,3.126 -8.57,8.109z" fill="url(#SVGID_2_)"/>
  </g>
  <rect id="svg_16" height="6" width="476.859" fill="#B61525" y="163.362" x="13.208"/>
 </g>
</svg>