<svg id="Ebene_1" data-name="Ebene 1" xmlns="http://www.w3.org/2000/svg" xmlns:xlink="http://www.w3.org/1999/xlink" viewBox="0 0 34 40"><defs><style>.cls-1{fill:url(#linear-gradient);}.cls-2{fill:url(#linear-gradient-2);}.cls-3{fill:url(#linear-gradient-3);}</style><linearGradient id="linear-gradient" x1="-3.57" y1="227.53" x2="29.93" y2="227.53" gradientTransform="matrix(0.15, 1.19, -0.89, 0, 214.62, 4.32)" gradientUnits="userSpaceOnUse"><stop offset="0" stop-color="#da0024"/><stop offset="0.34" stop-color="#d20025"/><stop offset="0.9" stop-color="#bb0c26"/><stop offset="1" stop-color="#b50f25"/></linearGradient><linearGradient id="linear-gradient-2" x1="-2.86" y1="221.51" x2="23.24" y2="221.51" gradientTransform="matrix(0.15, 1.19, -0.89, 0, 214.62, 4.32)" gradientUnits="userSpaceOnUse"><stop offset="0" stop-color="#871423"/><stop offset="0.17" stop-color="#801422"/><stop offset="0.7" stop-color="#691b21"/><stop offset="1" stop-color="#5f1c20"/></linearGradient><linearGradient id="linear-gradient-3" x1="5.7" y1="216.28" x2="26.03" y2="216.28" xlink:href="#linear-gradient"/></defs><title>Icon_Sipio_Erp_160604</title><path class="cls-1" d="M8.66,21.29c1.95,4.88,6.77,8,11,10.72,2.69,1.64,5.44,3.59,7.24,4.83,3.75,2.57,3.19,3.65.83,3A24,24,0,0,1,25.22,39l-1.56-.56L22,37.78l-0.9-.33L19.91,37C14.07,34.7,6.42,32.16,2.45,28.14c-0.2-.21-0.4-0.43-0.57-0.65l-0.05-.07A7.94,7.94,0,0,1,.13,23.84,8,8,0,0,1,0,22.24,9.55,9.55,0,0,1,.11,21a13,13,0,0,1,.72-2.65,20.3,20.3,0,0,1,1.33-2.79A29.76,29.76,0,0,1,4,12.67q0.52-.72,1.1-1.43c0.77-1,1.6-1.89,2.48-2.8,0.59-.61,1.19-1.2,1.82-1.77a32.92,32.92,0,0,1,6.91-5q0.49-.25,1-0.47l0.32-.14,0.61-.25,0.38-.14,0.53-.18,0.4-.11L20,0.27l0.4-.08,0.44-.08,0.4-.05,0.41,0L22,0H22.4l0.39,0,0.35,0,0.39,0.06,0.31,0.07,0.38,0.1,0.28,0.1,0.38,0.15,0.25,0.12,0.38,0.2L25.69,1l0.39,0.26,0.1,0.07A7.81,7.81,0,0,1,27.6,2.72h0c-2.33-3.27-7.44-2-12.33,1.95C10.55,8.59,6,15.27,8.66,21.29Z" transform="translate(0 0)"/><path class="cls-2" d="M31.64,23c-0.22,2.65-1.3,1.88-4-2.78,0.47-.1.84-0.65,0.78-2.4,0.06-5-5.16-11.33-11.52-6.27a11.41,11.41,0,0,0-1,.87c-2.78,2.74-4.69,6.33-4.18,9.62S15,28.46,19.7,32c-4.27-2.72-9.09-5.84-11-10.72-2.62-6,1.89-12.7,6.62-16.62,4.89-4,10-5.22,12.33-1.95l0,0.05h0C27.83,3,28,3.26,28.16,3.52L28.3,3.74l0.26,0.44,0.08,0.15,0.14,0.26C28.88,4.8,29,5,29.08,5.24l0.11,0.25q0.16,0.37.31,0.77l0.07,0.19a30.09,30.09,0,0,1,1.24,4.62h0A61.91,61.91,0,0,1,31.64,23Z" transform="translate(0 0)"/><path class="cls-3" d="M34,30.68c-0.07,3.78-1.77,5-3.77,4.6C26.07,34.45,16.69,27.46,16.67,22A7.37,7.37,0,0,1,17,19.43c1.87-5.31,7.91-5.19,10.37.18l0.33,0.6c2.66,4.67,3.74,5.43,4,2.78a61.89,61.89,0,0,0-.82-11.93C30.95,11.77,34.12,23.57,34,30.68Z" transform="translate(0 0)"/></svg>